<?xml version="1.0" encoding="UTF-8" standalone="yes"?><svg xmlns="http://www.w3.org/2000/svg" xmlns:xlink="http://www.w3.org/1999/xlink" height="207px" style="width:190px;height:207px;" version="1.1" viewBox="0 0 190 207" width="190px"><defs><filter height="300%" id="f1" width="300%" x="-1" y="-1"><feGaussianBlur result="blurOut" stdDeviation="2.0"/><feColorMatrix in="blurOut" result="blurOut2" type="matrix" values="0 0 0 0 0 0 0 0 0 0 0 0 0 0 0 0 0 0 .4 0"/><feOffset dx="4.0" dy="4.0" in="blurOut2" result="blurOut3"/><feBlend in="SourceGraphic" in2="blurOut3" mode="normal"/></filter></defs><g><rect fill="#FEFECE" filter="url(#f1)" height="190.5059" style="stroke: #A80036; stroke-width: 1.5;" width="70" x="6" y="8"/><ellipse cx="27.3" cy="24" fill="#ADD1B2" rx="11" ry="11" style="stroke: #A80036; stroke-width: 1.0;"/><path d="M30.2731,29.6431 Q29.6921,29.9419 29.0529,30.0913 Q28.4138,30.2407 27.7082,30.2407 Q25.2014,30.2407 23.8815,28.5889 Q22.5617,26.937 22.5617,23.8159 Q22.5617,20.6865 23.8815,19.0347 Q25.2014,17.3828 27.7082,17.3828 Q28.4138,17.3828 29.0612,17.5322 Q29.7087,17.6816 30.2731,17.9805 L30.2731,20.7031 Q29.6423,20.1221 29.0488,19.8523 Q28.4553,19.5825 27.8244,19.5825 Q26.4797,19.5825 25.7949,20.6492 Q25.1101,21.7158 25.1101,23.8159 Q25.1101,25.9077 25.7949,26.9744 Q26.4797,28.041 27.8244,28.041 Q28.4553,28.041 29.0488,27.7712 Q29.6423,27.5015 30.2731,26.9204 Z "/><text fill="#000000" font-family="sans-serif" font-size="12" lengthAdjust="spacingAndGlyphs" textLength="24" x="42.7" y="28.5352">用户</text><line style="stroke: #A80036; stroke-width: 1.5;" x1="7" x2="75" y1="40" y2="40"/><rect fill="none" height="6" style="stroke: #C82930; stroke-width: 1.0;" width="6" x="14" y="48.9775"/><text fill="#000000" font-family="sans-serif" font-size="11" lengthAdjust="spacingAndGlyphs" textLength="33" x="26" y="54.6348">登陆ID</text><rect fill="none" height="6" style="stroke: #C82930; stroke-width: 1.0;" width="6" x="14" y="61.9326"/><text fill="#000000" font-family="sans-serif" font-size="11" lengthAdjust="spacingAndGlyphs" textLength="22" x="26" y="67.5898">姓名</text><rect fill="none" height="6" style="stroke: #C82930; stroke-width: 1.0;" width="6" x="14" y="74.8877"/><text fill="#000000" font-family="sans-serif" font-size="11" lengthAdjust="spacingAndGlyphs" textLength="44" x="26" y="80.5449">身份证号</text><rect fill="none" height="6" style="stroke: #C82930; stroke-width: 1.0;" width="6" x="14" y="87.8428"/><text fill="#000000" font-family="sans-serif" font-size="11" lengthAdjust="spacingAndGlyphs" textLength="22" x="26" y="93.5">生日</text><rect fill="none" height="6" style="stroke: #C82930; stroke-width: 1.0;" width="6" x="14" y="100.7979"/><text fill="#000000" font-family="sans-serif" font-size="11" lengthAdjust="spacingAndGlyphs" textLength="22" x="26" y="106.4551">手机</text><rect fill="none" height="6" style="stroke: #C82930; stroke-width: 1.0;" width="6" x="14" y="113.7529"/><text fill="#000000" font-family="sans-serif" font-size="11" lengthAdjust="spacingAndGlyphs" textLength="22" x="26" y="119.4102">邮箱</text><rect fill="none" height="6" style="stroke: #C82930; stroke-width: 1.0;" width="6" x="14" y="126.708"/><text fill="#000000" font-family="sans-serif" font-size="11" lengthAdjust="spacingAndGlyphs" textLength="22" x="26" y="132.3652">性别</text><rect fill="none" height="6" style="stroke: #C82930; stroke-width: 1.0;" width="6" x="14" y="139.6631"/><text fill="#000000" font-family="sans-serif" font-size="11" lengthAdjust="spacingAndGlyphs" textLength="22" x="26" y="145.3203">地区</text><rect fill="none" height="6" style="stroke: #C82930; stroke-width: 1.0;" width="6" x="14" y="152.6182"/><text fill="#000000" font-family="sans-serif" font-size="11" lengthAdjust="spacingAndGlyphs" textLength="22" x="26" y="158.2754">职业</text><rect fill="none" height="6" style="stroke: #C82930; stroke-width: 1.0;" width="6" x="14" y="165.5732"/><text fill="#000000" font-family="sans-serif" font-size="11" lengthAdjust="spacingAndGlyphs" textLength="22" x="26" y="171.2305">喜好</text><rect fill="none" height="6" style="stroke: #C82930; stroke-width: 1.0;" width="6" x="14" y="178.5283"/><text fill="#000000" font-family="sans-serif" font-size="11" lengthAdjust="spacingAndGlyphs" textLength="22" x="26" y="184.1855">单位</text><line style="stroke: #A80036; stroke-width: 1.5;" x1="7" x2="75" y1="190.5059" y2="190.5059"/><rect fill="#FEFECE" filter="url(#f1)" height="164.5957" style="stroke: #A80036; stroke-width: 1.5;" width="70" x="111" y="21"/><ellipse cx="132.3" cy="37" fill="#ADD1B2" rx="11" ry="11" style="stroke: #A80036; stroke-width: 1.0;"/><path d="M135.2731,42.6431 Q134.6921,42.9419 134.0529,43.0913 Q133.4138,43.2407 132.7082,43.2407 Q130.2014,43.2407 128.8815,41.5889 Q127.5617,39.937 127.5617,36.8159 Q127.5617,33.6865 128.8815,32.0347 Q130.2014,30.3828 132.7082,30.3828 Q133.4138,30.3828 134.0612,30.5322 Q134.7087,30.6816 135.2731,30.9805 L135.2731,33.7031 Q134.6423,33.1221 134.0488,32.8523 Q133.4553,32.5825 132.8244,32.5825 Q131.4797,32.5825 130.7949,33.6492 Q130.1101,34.7158 130.1101,36.8159 Q130.1101,38.9077 130.7949,39.9744 Q131.4797,41.041 132.8244,41.041 Q133.4553,41.041 134.0488,40.7712 Q134.6423,40.5015 135.2731,39.9204 Z "/><text fill="#000000" font-family="sans-serif" font-size="12" lengthAdjust="spacingAndGlyphs" textLength="24" x="147.7" y="41.5352">员工</text><line style="stroke: #A80036; stroke-width: 1.5;" x1="112" x2="180" y1="53" y2="53"/><rect fill="none" height="6" style="stroke: #C82930; stroke-width: 1.0;" width="6" x="119" y="61.9775"/><text fill="#000000" font-family="sans-serif" font-size="11" lengthAdjust="spacingAndGlyphs" textLength="22" x="131" y="67.6348">工号</text><rect fill="none" height="6" style="stroke: #C82930; stroke-width: 1.0;" width="6" x="119" y="74.9326"/><text fill="#000000" font-family="sans-serif" font-size="11" lengthAdjust="spacingAndGlyphs" textLength="22" x="131" y="80.5898">岗位</text><rect fill="none" height="6" style="stroke: #C82930; stroke-width: 1.0;" width="6" x="119" y="87.8877"/><text fill="#000000" font-family="sans-serif" font-size="11" lengthAdjust="spacingAndGlyphs" textLength="22" x="131" y="93.5449">工龄</text><rect fill="none" height="6" style="stroke: #C82930; stroke-width: 1.0;" width="6" x="119" y="100.8428"/><text fill="#000000" font-family="sans-serif" font-size="11" lengthAdjust="spacingAndGlyphs" textLength="22" x="131" y="106.5">薪资</text><rect fill="none" height="6" style="stroke: #C82930; stroke-width: 1.0;" width="6" x="119" y="113.7979"/><text fill="#000000" font-family="sans-serif" font-size="11" lengthAdjust="spacingAndGlyphs" textLength="22" x="131" y="119.4551">性别</text><rect fill="none" height="6" style="stroke: #C82930; stroke-width: 1.0;" width="6" x="119" y="126.7529"/><text fill="#000000" font-family="sans-serif" font-size="11" lengthAdjust="spacingAndGlyphs" textLength="44" x="131" y="132.4102">所属部门</text><rect fill="none" height="6" style="stroke: #C82930; stroke-width: 1.0;" width="6" x="119" y="139.708"/><text fill="#000000" font-family="sans-serif" font-size="11" lengthAdjust="spacingAndGlyphs" textLength="44" x="131" y="145.3652">办公电话</text><rect fill="none" height="6" style="stroke: #C82930; stroke-width: 1.0;" width="6" x="119" y="152.6631"/><text fill="#000000" font-family="sans-serif" font-size="11" lengthAdjust="spacingAndGlyphs" textLength="22" x="131" y="158.3203">姓名</text><rect fill="none" height="6" style="stroke: #C82930; stroke-width: 1.0;" width="6" x="119" y="165.6182"/><text fill="#000000" font-family="sans-serif" font-size="11" lengthAdjust="spacingAndGlyphs" textLength="33" x="131" y="171.2754">用户ID</text><line style="stroke: #A80036; stroke-width: 1.5;" x1="112" x2="180" y1="177.5957" y2="177.5957"/></g></svg>