<?xml version="1.0" encoding="UTF-8" standalone="yes"?><svg xmlns="http://www.w3.org/2000/svg" xmlns:xlink="http://www.w3.org/1999/xlink" height="289px" style="width:1156px;height:289px;" version="1.1" viewBox="0 0 1156 289" width="1156px"><defs><filter height="300%" id="f1" width="300%" x="-1" y="-1"><feGaussianBlur result="blurOut" stdDeviation="2.0"/><feColorMatrix in="blurOut" result="blurOut2" type="matrix" values="0 0 0 0 0 0 0 0 0 0 0 0 0 0 0 0 0 0 .4 0"/><feOffset dx="4.0" dy="4.0" in="blurOut2" result="blurOut3"/><feBlend in="SourceGraphic" in2="blurOut3" mode="normal"/></filter></defs><g><polygon fill="#FFFFFF" filter="url(#f1)" points="30,42,40,32,370,32,370,272,360,282,30,282,30,42" style="stroke: #000000; stroke-width: 2.0;"/><line style="stroke: #000000; stroke-width: 2.0;" x1="360" x2="369" y1="42" y2="33"/><line style="stroke: #000000; stroke-width: 2.0;" x1="30" x2="360" y1="42" y2="42"/><line style="stroke: #000000; stroke-width: 2.0;" x1="360" x2="360" y1="42" y2="282"/><text fill="#000000" font-family="sans-serif" font-size="14" font-weight="bold" lengthAdjust="spacingAndGlyphs" textLength="94" x="149" y="58.5352">RestServer01</text><polygon fill="#FFFFFF" filter="url(#f1)" points="609,42,619,32,949,32,949,272,939,282,609,282,609,42" style="stroke: #000000; stroke-width: 2.0;"/><line style="stroke: #000000; stroke-width: 2.0;" x1="939" x2="948" y1="42" y2="33"/><line style="stroke: #000000; stroke-width: 2.0;" x1="609" x2="939" y1="42" y2="42"/><line style="stroke: #000000; stroke-width: 2.0;" x1="939" x2="939" y1="42" y2="282"/><text fill="#000000" font-family="sans-serif" font-size="14" font-weight="bold" lengthAdjust="spacingAndGlyphs" textLength="94" x="728" y="58.5352">RestServer02</text><polygon fill="#FFFFFF" filter="url(#f1)" points="981,50,991,40,1151,40,1151,122,1141,132,981,132,981,50" style="stroke: #000000; stroke-width: 2.0;"/><line style="stroke: #000000; stroke-width: 2.0;" x1="1141" x2="1150" y1="50" y2="41"/><line style="stroke: #000000; stroke-width: 2.0;" x1="981" x2="1141" y1="50" y2="50"/><line style="stroke: #000000; stroke-width: 2.0;" x1="1141" x2="1141" y1="50" y2="132"/><text fill="#000000" font-family="sans-serif" font-size="14" font-weight="bold" lengthAdjust="spacingAndGlyphs" textLength="94" x="1015" y="66.5352">RestServer03</text><path d="M410,174 C410,164 489.5,164 489.5,164 C489.5,164 569,164 569,174 L569,272 C569,282 489.5,282 489.5,282 C489.5,282 410,282 410,272 L410,174 " fill="#FFFFFF" filter="url(#f1)" style="stroke: #000000; stroke-width: 2.0;"/><path d="M410,174 C410,184 489.5,184 489.5,184 C489.5,184 569,184 569,174 " fill="none" style="stroke: #000000; stroke-width: 2.0;"/><text fill="#000000" font-family="sans-serif" font-size="14" font-weight="bold" lengthAdjust="spacingAndGlyphs" textLength="29" x="475" y="198.5352">D01</text><rect fill="#FEFECE" filter="url(#f1)" height="36.4883" style="stroke: #A80036; stroke-width: 1.5;" width="110" x="54" y="80"/><rect fill="#FEFECE" height="5" style="stroke: #A80036; stroke-width: 1.5;" width="10" x="49" y="85"/><rect fill="#FEFECE" height="5" style="stroke: #A80036; stroke-width: 1.5;" width="10" x="49" y="106.4883"/><text fill="#000000" font-family="sans-serif" font-size="14" lengthAdjust="spacingAndGlyphs" textLength="90" x="64" y="103.5352">HttpServer01</text><rect fill="#FEFECE" filter="url(#f1)" height="36.4883" style="stroke: #A80036; stroke-width: 1.5;" width="127" x="199.5" y="80"/><rect fill="#FEFECE" height="5" style="stroke: #A80036; stroke-width: 1.5;" width="10" x="194.5" y="85"/><rect fill="#FEFECE" height="5" style="stroke: #A80036; stroke-width: 1.5;" width="10" x="194.5" y="106.4883"/><text fill="#000000" font-family="sans-serif" font-size="14" lengthAdjust="spacingAndGlyphs" textLength="107" x="209.5" y="103.5352">DomainLogic01</text><rect fill="#FEFECE" filter="url(#f1)" height="36.4883" style="stroke: #A80036; stroke-width: 1.5;" width="70" x="70" y="222"/><rect fill="#FEFECE" height="5" style="stroke: #A80036; stroke-width: 1.5;" width="10" x="65" y="227"/><rect fill="#FEFECE" height="5" style="stroke: #A80036; stroke-width: 1.5;" width="10" x="65" y="248.4883"/><text fill="#000000" font-family="sans-serif" font-size="14" lengthAdjust="spacingAndGlyphs" textLength="50" x="80" y="245.5352">ORM01</text><rect fill="#FEFECE" filter="url(#f1)" height="36.4883" style="stroke: #A80036; stroke-width: 1.5;" width="151" x="175.5" y="222"/><rect fill="#FEFECE" height="5" style="stroke: #A80036; stroke-width: 1.5;" width="10" x="170.5" y="227"/><rect fill="#FEFECE" height="5" style="stroke: #A80036; stroke-width: 1.5;" width="10" x="170.5" y="248.4883"/><text fill="#000000" font-family="sans-serif" font-size="14" lengthAdjust="spacingAndGlyphs" textLength="131" x="185.5" y="245.5352">ServiceDiscovery01</text><rect fill="#FEFECE" filter="url(#f1)" height="36.4883" style="stroke: #A80036; stroke-width: 1.5;" width="110" x="633" y="80"/><rect fill="#FEFECE" height="5" style="stroke: #A80036; stroke-width: 1.5;" width="10" x="628" y="85"/><rect fill="#FEFECE" height="5" style="stroke: #A80036; stroke-width: 1.5;" width="10" x="628" y="106.4883"/><text fill="#000000" font-family="sans-serif" font-size="14" lengthAdjust="spacingAndGlyphs" textLength="90" x="643" y="103.5352">HttpServer02</text><rect fill="#FEFECE" filter="url(#f1)" height="36.4883" style="stroke: #A80036; stroke-width: 1.5;" width="127" x="778.5" y="80"/><rect fill="#FEFECE" height="5" style="stroke: #A80036; stroke-width: 1.5;" width="10" x="773.5" y="85"/><rect fill="#FEFECE" height="5" style="stroke: #A80036; stroke-width: 1.5;" width="10" x="773.5" y="106.4883"/><text fill="#000000" font-family="sans-serif" font-size="14" lengthAdjust="spacingAndGlyphs" textLength="107" x="788.5" y="103.5352">DomainLogic02</text><rect fill="#FEFECE" filter="url(#f1)" height="36.4883" style="stroke: #A80036; stroke-width: 1.5;" width="70" x="649" y="222"/><rect fill="#FEFECE" height="5" style="stroke: #A80036; stroke-width: 1.5;" width="10" x="644" y="227"/><rect fill="#FEFECE" height="5" style="stroke: #A80036; stroke-width: 1.5;" width="10" x="644" y="248.4883"/><text fill="#000000" font-family="sans-serif" font-size="14" lengthAdjust="spacingAndGlyphs" textLength="50" x="659" y="245.5352">ORM02</text><rect fill="#FEFECE" filter="url(#f1)" height="36.4883" style="stroke: #A80036; stroke-width: 1.5;" width="151" x="754.5" y="222"/><rect fill="#FEFECE" height="5" style="stroke: #A80036; stroke-width: 1.5;" width="10" x="749.5" y="227"/><rect fill="#FEFECE" height="5" style="stroke: #A80036; stroke-width: 1.5;" width="10" x="749.5" y="248.4883"/><text fill="#000000" font-family="sans-serif" font-size="14" lengthAdjust="spacingAndGlyphs" textLength="131" x="764.5" y="245.5352">ServiceDiscovery02</text><rect fill="#FEFECE" filter="url(#f1)" height="36.4883" style="stroke: #A80036; stroke-width: 1.5;" width="81" x="1025.5" y="80"/><rect fill="#FEFECE" height="5" style="stroke: #A80036; stroke-width: 1.5;" width="10" x="1020.5" y="85"/><rect fill="#FEFECE" height="5" style="stroke: #A80036; stroke-width: 1.5;" width="10" x="1020.5" y="106.4883"/><text fill="#000000" font-family="sans-serif" font-size="14" lengthAdjust="spacingAndGlyphs" textLength="61" x="1035.5" y="103.5352">EventBus</text><rect fill="#FEFECE" filter="url(#f1)" height="36.4883" rx="35" ry="35" style="stroke: #000000; stroke-width: 1.5;" width="91" x="453.5" y="222"/><text fill="#000000" font-family="sans-serif" font-size="14" lengthAdjust="spacingAndGlyphs" textLength="71" x="463.5" y="245.5352">user_table</text><path d="M973,229.5 C973,219.5 997,219.5 997,219.5 C997,219.5 1021,219.5 1021,229.5 L1021,250.9883 C1021,260.9883 997,260.9883 997,260.9883 C997,260.9883 973,260.9883 973,250.9883 L973,229.5 " fill="#FFFFFF" filter="url(#f1)" style="stroke: #000000; stroke-width: 1.5;"/><path d="M973,229.5 C973,239.5 997,239.5 997,239.5 C997,239.5 1021,239.5 1021,229.5 " fill="none" style="stroke: #000000; stroke-width: 1.5;"/><text fill="#000000" font-family="sans-serif" font-size="14" lengthAdjust="spacingAndGlyphs" textLength="28" x="983" y="253.0352">D02</text><path d="M370.0644,119.1603 C370.1415,119.353 370.219,119.5468 370.2969,119.7416 C370.6086,120.5209 370.9269,121.3166 371.2514,122.1279 C376.4437,135.1089 383.2274,152.0683 390.0104,169.0257 C396.7933,185.9831 403.5755,202.9385 408.7646,215.9113 C409.089,216.7221 409.4071,217.5174 409.7186,218.2961 C409.7964,218.4908 409.8739,218.6844 409.9509,218.877 " fill="none" style="stroke: #A80036; stroke-width: 1.0;"/><ellipse cx="390.0104" cy="169.0257" fill="#FFFFFF" rx="6" ry="6" style="stroke: #A80036; stroke-width: 1.5;"/><path d="M949.1641,119.4096 C949.2239,119.559 949.2839,119.7091 949.3442,119.8598 C949.4648,120.1612 949.5863,120.465 949.7088,120.7712 C950.6886,123.221 951.7299,125.824 952.821,128.5519 C955.0032,134.0076 957.3851,139.9622 959.875,146.1871 C969.8348,171.0868 981.524,200.3101 989.086,219.2152 " fill="none" style="stroke: #A80036; stroke-width: 1.0;"/><ellipse cx="975.3797" cy="184.9491" fill="#FFFFFF" rx="6" ry="6" style="stroke: #A80036; stroke-width: 1.5;"/></g></svg>